<svg xmlns="http://www.w3.org/2000/svg" xmlns:xlink="http://www.w3.org/1999/xlink" width="940" zoomAndPan="magnify" viewBox="0 0 705 591.000005" height="788" preserveAspectRatio="xMidYMid meet" version="1.0"><defs><g/><clipPath id="88eb833d4a"><path d="M 79.234375 8.179688 L 636 8.179688 L 636 584 L 79.234375 584 Z M 79.234375 8.179688 " clip-rule="nonzero"/></clipPath><clipPath id="52b2489bb7"><path d="M 635.863281 488.671875 C 635.863281 541.019531 593.429688 583.457031 541.078125 583.457031 L 174.574219 583.457031 C 122.226562 583.457031 79.792969 541.019531 79.792969 488.671875 L 79.792969 103.519531 C 79.792969 51.171875 122.226562 8.734375 174.574219 8.734375 L 541.078125 8.734375 C 593.429688 8.734375 635.863281 51.171875 635.863281 103.519531 Z M 635.863281 488.671875 " clip-rule="nonzero"/></clipPath></defs><g clip-path="url(#88eb833d4a)"><g clip-path="url(#52b2489bb7)"><path fill="#14a6ba" d="M 79.234375 8.179688 L 636.417969 8.179688 L 636.417969 584.269531 L 79.234375 584.269531 Z M 79.234375 8.179688 " fill-opacity="1" fill-rule="nonzero"/></g></g><g fill="#ffffff" fill-opacity="1"><g transform="translate(80.732844, 386.710157)"><g><path d="M 116.890625 1.3125 C 101.648438 1.3125 87.660156 -1.6875 74.921875 -7.6875 C 62.179688 -13.695312 51.195312 -22.117188 41.96875 -32.953125 C 32.738281 -43.796875 25.632812 -56.25 20.65625 -70.3125 C 15.675781 -84.375 13.1875 -99.3125 13.1875 -115.125 C 13.1875 -131.820312 15.820312 -147.347656 21.09375 -161.703125 C 26.363281 -176.054688 33.757812 -188.726562 43.28125 -199.71875 C 52.800781 -210.707031 64.078125 -219.203125 77.109375 -225.203125 C 90.148438 -231.210938 104.582031 -234.21875 120.40625 -234.21875 C 138.269531 -234.21875 153.941406 -230.1875 167.421875 -222.125 C 180.898438 -214.070312 192.03125 -203.304688 200.8125 -189.828125 L 200.8125 -230.25 L 252.234375 -230.25 L 252.234375 -10.984375 C 252.234375 11.867188 246.738281 31.421875 235.75 47.671875 C 224.757812 63.929688 209.597656 76.378906 190.265625 85.015625 C 170.929688 93.660156 148.960938 97.984375 124.359375 97.984375 C 99.453125 97.984375 78.359375 93.804688 61.078125 85.453125 C 43.796875 77.109375 29.003906 65.320312 16.703125 50.09375 L 48.78125 18.890625 C 57.5625 29.734375 68.617188 38.226562 81.953125 44.375 C 95.285156 50.53125 109.421875 53.609375 124.359375 53.609375 C 136.953125 53.609375 148.445312 51.335938 158.84375 46.796875 C 169.25 42.253906 177.597656 35.222656 183.890625 25.703125 C 190.191406 16.179688 193.34375 3.953125 193.34375 -10.984375 L 193.34375 -39.984375 C 185.726562 -26.804688 174.960938 -16.628906 161.046875 -9.453125 C 147.128906 -2.273438 132.410156 1.3125 116.890625 1.3125 Z M 136.65625 -45.703125 C 143.101562 -45.703125 149.253906 -46.726562 155.109375 -48.78125 C 160.972656 -50.832031 166.394531 -53.613281 171.375 -57.125 C 176.351562 -60.632812 180.742188 -64.804688 184.546875 -69.640625 C 188.359375 -74.484375 191.289062 -79.394531 193.34375 -84.375 L 193.34375 -139.296875 C 189.832031 -148.378906 184.925781 -156.285156 178.625 -163.015625 C 172.320312 -169.753906 165.289062 -174.957031 157.53125 -178.625 C 149.769531 -182.289062 141.640625 -184.125 133.140625 -184.125 C 124.054688 -184.125 115.851562 -182.21875 108.53125 -178.40625 C 101.207031 -174.59375 94.910156 -169.242188 89.640625 -162.359375 C 84.367188 -155.484375 80.34375 -147.867188 77.5625 -139.515625 C 74.78125 -131.171875 73.390625 -122.457031 73.390625 -113.375 C 73.390625 -104 75 -95.207031 78.21875 -87 C 81.4375 -78.800781 85.898438 -71.625 91.609375 -65.46875 C 97.328125 -59.320312 104.066406 -54.488281 111.828125 -50.96875 C 119.597656 -47.457031 127.875 -45.703125 136.65625 -45.703125 Z M 136.65625 -45.703125 "/></g></g></g><g fill="#ffffff" fill-opacity="1"><g transform="translate(359.322495, 386.710157)"><g><path d="M 157.75 4.390625 C 140.175781 4.390625 124.503906 0.4375 110.734375 -7.46875 C 96.960938 -15.375 86.125 -26.210938 78.21875 -39.984375 L 78.21875 0 L 26.8125 0 L 26.8125 -320.78125 L 85.6875 -320.78125 L 85.6875 -189.828125 C 93.882812 -203.597656 104.648438 -214.4375 117.984375 -222.34375 C 131.316406 -230.257812 146.914062 -234.21875 164.78125 -234.21875 C 179.71875 -234.21875 193.335938 -231.066406 205.640625 -224.765625 C 217.953125 -218.460938 228.570312 -209.742188 237.5 -198.609375 C 246.4375 -187.484375 253.320312 -174.742188 258.15625 -160.390625 C 262.988281 -146.035156 265.40625 -130.65625 265.40625 -114.25 C 265.40625 -97.84375 262.695312 -82.460938 257.28125 -68.109375 C 251.863281 -53.753906 244.320312 -41.082031 234.65625 -30.09375 C 224.988281 -19.113281 213.632812 -10.617188 200.59375 -4.609375 C 187.5625 1.390625 173.28125 4.390625 157.75 4.390625 Z M 141.5 -45.703125 C 150.875 -45.703125 159.441406 -47.53125 167.203125 -51.1875 C 174.960938 -54.851562 181.695312 -59.757812 187.40625 -65.90625 C 193.125 -72.0625 197.519531 -79.3125 200.59375 -87.65625 C 203.664062 -96.007812 205.203125 -104.726562 205.203125 -113.8125 C 205.203125 -126.40625 202.640625 -138.046875 197.515625 -148.734375 C 192.390625 -159.429688 185.359375 -168.003906 176.421875 -174.453125 C 167.492188 -180.898438 157.023438 -184.125 145.015625 -184.125 C 136.515625 -184.125 128.382812 -182.144531 120.625 -178.1875 C 112.863281 -174.226562 105.976562 -168.878906 99.96875 -162.140625 C 93.957031 -155.410156 89.195312 -147.796875 85.6875 -139.296875 L 85.6875 -84.375 C 87.445312 -78.507812 90.300781 -73.234375 94.25 -68.546875 C 98.207031 -63.859375 102.820312 -59.828125 108.09375 -56.453125 C 113.363281 -53.085938 118.851562 -50.453125 124.5625 -48.546875 C 130.28125 -46.648438 135.925781 -45.703125 141.5 -45.703125 Z M 141.5 -45.703125 "/></g></g></g></svg>