<svg xmlns="http://www.w3.org/2000/svg" xmlns:xlink="http://www.w3.org/1999/xlink" width="500" zoomAndPan="magnify" viewBox="0 0 375 374.999991" height="500" preserveAspectRatio="xMidYMid meet" version="1.0"><path fill="#14a6ba" d="M 349.90625 245.644531 C 341.53125 248.246094 332.894531 249.941406 324.296875 251.730469 C 306.476562 255.398438 289.300781 261.4375 271.496094 265.257812 C 238.316406 272.375 204.875 278.5 171.558594 285.035156 C 137.652344 291.636719 103.550781 297.664062 69.089844 300.460938 C 60.628906 301.15625 52.144531 301.605469 43.667969 302.089844 C 37.355469 302.449219 32.246094 303.535156 30.328125 296.117188 C 26.160156 279.792969 23.945312 262.371094 21.707031 245.683594 C 19.421875 228.808594 17.066406 211.945312 14.851562 195.0625 C 12.773438 178.78125 6.414062 159.429688 10.472656 143.179688 C 10.085938 136.105469 17.160156 134.964844 23.722656 133.230469 C 32.863281 130.820312 42 128.71875 51.292969 126.945312 C 69.410156 123.476562 87.65625 120.722656 105.867188 117.597656 C 172.753906 106.078125 238.664062 89.207031 305.011719 75.109375 C 311.828125 73.65625 321.539062 70.285156 328.46875 72.570312 C 334.355469 74.484375 336.273438 81.011719 337.765625 86.359375 C 342.101562 101.910156 344.941406 118.007812 348.597656 133.746094 C 352.40625 150.179688 355.527344 166.75 358.617188 183.332031 C 361.664062 199.679688 366.179688 216.296875 366.910156 232.960938 C 367.15625 240.949219 355.710938 243.855469 349.90625 245.644531 Z M 349.90625 245.644531 " fill-opacity="1" fill-rule="evenodd"/><path fill="#ffffff" d="M 319.023438 147.015625 C 317.351562 137.886719 315.644531 128.808594 313.832031 119.734375 C 312.933594 115.273438 312.03125 110.804688 311.128906 106.332031 C 310.6875 104.140625 310.367188 101.894531 309.863281 99.726562 C 309.828125 99.417969 309.734375 99.125 309.578125 98.851562 C 309.425781 98.578125 309.226562 98.34375 308.980469 98.152344 C 308.734375 97.960938 308.457031 97.820312 308.15625 97.738281 C 307.855469 97.65625 307.546875 97.632812 307.238281 97.671875 C 305.253906 97.878906 303.292969 98.214844 301.355469 98.683594 L 294.503906 99.949219 C 290.011719 100.78125 285.519531 101.625 281.03125 102.488281 C 272.039062 104.207031 263.074219 106.042969 254.140625 107.949219 C 249.722656 108.902344 245.339844 109.890625 240.988281 110.910156 C 238.703125 111.433594 236.480469 111.976562 234.195312 112.429688 C 232.847656 112.691406 230.660156 112.773438 229.898438 114.160156 C 229.136719 115.542969 229.953125 117.960938 230.167969 119.429688 L 231.125 126.125 C 231.765625 130.6875 232.40625 135.253906 233.082031 139.773438 C 233.761719 144.292969 234.417969 148.710938 234.996094 153.199219 C 235.285156 155.429688 235.566406 157.65625 235.808594 159.894531 C 235.953125 161.242188 235.847656 163.523438 237.179688 164.351562 C 238.511719 165.179688 241.222656 164.140625 242.726562 163.894531 L 249.425781 162.777344 C 253.890625 162.019531 258.351562 161.261719 262.816406 160.496094 C 271.753906 158.929688 280.695312 157.300781 289.566406 155.359375 C 294.046875 154.386719 298.515625 153.335938 302.988281 152.316406 C 307.273438 151.351562 311.628906 150.6875 315.933594 149.65625 C 317.242188 149.296875 319.359375 148.871094 319.023438 147.015625 Z M 231.242188 113.125 L 231.414062 113.125 Z M 231.242188 113.125 " fill-opacity="1" fill-rule="evenodd"/><path fill="#000000" d="M 269.539062 146.359375 C 269.25 144.617188 267.367188 144.839844 266.050781 145.050781 C 263.5625 145.476562 261.078125 146.035156 258.617188 146.574219 C 258.671875 141.832031 258.007812 137.117188 257.6875 132.394531 C 257.390625 128.085938 257.460938 123.707031 256.972656 119.414062 C 256.820312 118.121094 256.210938 116.464844 254.589844 116.714844 C 253.15625 116.933594 252.402344 118.785156 251.6875 119.847656 C 250.484375 121.636719 249.265625 123.425781 248.046875 125.171875 C 247.179688 126.445312 245.761719 128.140625 246.167969 129.800781 C 246.570312 131.457031 248.390625 131.546875 249.425781 130.5 C 250.152344 129.59375 250.757812 128.613281 251.246094 127.5625 C 251.910156 126.40625 252.570312 125.28125 253.316406 124.148438 C 253.628906 128.984375 253.933594 133.816406 254.40625 138.601562 C 254.628906 140.882812 254.695312 143.074219 254.839844 145.316406 C 254.980469 145.9375 254.996094 146.558594 254.886719 147.183594 C 254.621094 147.835938 253.941406 147.722656 253.324219 147.773438 C 251.410156 147.882812 249.546875 148.261719 247.742188 148.917969 C 246.5625 149.410156 245.597656 150.816406 246.503906 152.035156 C 247.652344 153.558594 250.308594 152.203125 251.734375 151.921875 C 254.070312 151.457031 256.378906 150.933594 258.695312 150.398438 C 261.269531 149.800781 263.84375 149.335938 266.449219 148.878906 C 267.839844 148.71875 269.828125 148.164062 269.539062 146.359375 Z M 249.367188 149.625 C 249.296875 149.480469 249.328125 149.5625 249.417969 149.667969 C 249.511719 149.777344 249.367188 149.617188 249.367188 149.617188 Z M 249.601562 149.898438 L 249.449219 149.707031 C 249.496094 149.773438 249.546875 149.832031 249.601562 149.890625 Z M 305.195312 139.5 C 305.011719 138.605469 304.675781 137.769531 304.191406 136.996094 C 303.6875 135.976562 303.191406 134.957031 302.667969 133.953125 C 301.59375 131.851562 300.457031 129.785156 299.476562 127.636719 C 297.695312 123.734375 296.429688 119.628906 294.769531 115.65625 C 293.953125 113.679688 292.742188 109.988281 290.046875 110.125 C 287.160156 110.269531 286.035156 113.992188 285.347656 116.210938 C 284.015625 120.585938 282.941406 125.035156 282 129.511719 C 281.53125 131.730469 281.089844 133.957031 280.671875 136.1875 C 280.300781 138.207031 279.578125 140.457031 279.605469 142.511719 C 279.605469 143.933594 280.558594 145.265625 282.144531 144.792969 C 283.445312 144.367188 283.429688 142.808594 283.613281 141.6875 C 283.949219 139.613281 284.375 137.558594 284.65625 135.472656 C 284.753906 134.804688 284.753906 133.785156 285.28125 133.285156 C 285.804688 132.78125 286.804688 132.871094 287.445312 132.757812 C 289.867188 132.355469 292.273438 131.867188 294.699219 131.480469 C 295.425781 131.359375 296.390625 130.984375 297.078125 131.402344 C 297.761719 131.824219 297.882812 132.820312 298.175781 133.488281 C 299.136719 135.78125 300.234375 138.011719 301.464844 140.175781 C 301.945312 140.9375 302.652344 141.757812 303.679688 141.558594 C 303.90625 141.507812 304.121094 141.417969 304.316406 141.289062 C 304.511719 141.160156 304.679688 141.003906 304.820312 140.816406 C 304.960938 140.628906 305.0625 140.425781 305.132812 140.199219 C 305.199219 139.976562 305.226562 139.746094 305.210938 139.515625 Z M 294.535156 127.652344 C 291.691406 128.003906 288.875 128.519531 286.082031 129.175781 C 287.191406 124.335938 287.710938 119.21875 290.070312 114.765625 C 292.316406 118.820312 293.679688 123.265625 295.308594 127.585938 Z M 294.535156 127.652344 " fill-opacity="1" fill-rule="evenodd"/><path fill="#ffffff" d="M 44.355469 171.539062 C 46.496094 170.019531 48.566406 167.941406 48.757812 165.144531 C 48.816406 163.886719 48.589844 162.6875 48.082031 161.535156 C 47.574219 160.386719 46.835938 159.410156 45.871094 158.609375 C 44.753906 157.75 43.515625 157.144531 42.15625 156.785156 C 40.796875 156.429688 39.417969 156.347656 38.027344 156.546875 C 36.921875 156.707031 35.929688 155.863281 34.871094 156.265625 C 33.8125 156.667969 33.351562 157.902344 33.296875 158.933594 C 33.210938 160.113281 33.851562 160.980469 34.171875 162.070312 C 34.574219 163.460938 34.4375 165.007812 34.582031 166.4375 C 34.902344 169.640625 35.117188 172.855469 35.488281 176.058594 C 35.863281 179.261719 36.25 182.3125 36.835938 185.371094 C 37.410156 188.214844 39.800781 188.011719 42.167969 187.449219 C 46.289062 186.453125 51.984375 183.476562 51.78125 178.515625 C 51.582031 174.726562 47.597656 172.445312 44.355469 171.539062 Z M 39.097656 170.238281 C 38.945312 168.382812 38.832031 166.511719 38.566406 164.671875 C 38.390625 163.492188 37.75 162.03125 38.199219 160.867188 C 40.636719 159.4375 44.804688 161.902344 44.566406 164.753906 C 44.339844 167.449219 40.925781 168.765625 39.097656 170.238281 Z M 40.773438 183.476562 C 40.273438 180.882812 39.929688 178.265625 39.609375 175.648438 C 41.453125 175.519531 43.136719 175.359375 44.871094 176.136719 C 45.914062 176.601562 47.484375 177.40625 47.597656 178.707031 C 47.492188 181.574219 43 182.921875 40.773438 183.476562 Z M 112.285156 166.285156 C 110.371094 165.027344 108.394531 163.875 106.359375 162.824219 C 110.105469 160.351562 112.324219 155.34375 110.167969 151.113281 C 108.011719 146.886719 103.085938 145.160156 98.644531 145.546875 C 97.519531 145.578125 96.464844 145.867188 95.476562 146.414062 C 94.214844 147.234375 94.257812 148.367188 94.511719 149.699219 C 95.058594 152.621094 95.453125 155.550781 95.78125 158.5 C 96.125 161.6875 96.390625 164.890625 96.703125 168.085938 C 96.941406 170.535156 97.023438 173.070312 97.824219 175.421875 C 98.21875 176.601562 98.898438 178 100.390625 177.855469 C 101.882812 177.710938 102.324219 176.332031 102.164062 175.117188 C 101.746094 171.675781 100.863281 168.332031 100.574219 164.855469 C 103.671875 166.375 106.894531 167.523438 109.710938 169.59375 C 110.730469 170.355469 111.660156 171.59375 112.925781 171.921875 C 113.089844 171.960938 113.253906 171.984375 113.421875 171.984375 C 113.589844 171.988281 113.757812 171.96875 113.921875 171.929688 C 114.085938 171.894531 114.242188 171.835938 114.394531 171.761719 C 114.542969 171.683594 114.683594 171.59375 114.8125 171.484375 C 114.941406 171.375 115.054688 171.25 115.152344 171.113281 C 115.25 170.976562 115.332031 170.832031 115.394531 170.675781 C 115.460938 170.519531 115.503906 170.359375 115.527344 170.191406 C 115.554688 170.027344 115.558594 169.859375 115.542969 169.691406 C 115.390625 168.027344 113.542969 167.097656 112.285156 166.285156 Z M 94.769531 149.707031 C 94.679688 149.617188 94.609375 149.609375 94.722656 149.65625 C 94.722656 149.65625 94.722656 149.65625 94.769531 149.707031 Z M 103.824219 159.507812 C 102.636719 160.121094 101.386719 159.613281 100.175781 160.015625 C 99.839844 156.617188 99.382812 153.230469 98.796875 149.859375 C 102.757812 149.472656 109.019531 152.066406 106.308594 156.933594 C 105.734375 158.027344 104.914062 158.882812 103.847656 159.507812 Z M 72.820312 160.8125 C 72.144531 158.242188 70.535156 156.25 68.9375 154.171875 C 68.238281 153.296875 67.636719 152.179688 66.652344 151.570312 C 65.433594 150.8125 63.894531 151.085938 62.59375 151.449219 C 61.371094 151.820312 60.238281 152.375 59.195312 153.113281 C 58.152344 153.851562 57.253906 154.738281 56.5 155.769531 C 53.042969 160.207031 52.425781 166.070312 54.085938 171.359375 C 55.433594 175.648438 58.550781 179.984375 63.445312 180.207031 C 68.777344 180.449219 72.585938 175.277344 73.117188 170.390625 C 73.609375 167.179688 73.511719 163.988281 72.820312 160.8125 Z M 66.066406 175.441406 C 63.113281 177.101562 60.242188 174.75 58.890625 172.210938 C 58.070312 170.652344 57.554688 168.996094 57.351562 167.246094 C 57.144531 165.496094 57.265625 163.769531 57.703125 162.0625 C 58.414062 159.589844 60.917969 155.277344 64.011719 155.429688 C 64.894531 155.472656 65.375 156.3125 65.914062 156.910156 C 66.703125 157.722656 67.382812 158.621094 67.953125 159.597656 C 68.929688 161.6875 69.359375 163.886719 69.25 166.191406 C 69.25 169.226562 69.152344 173.671875 66.066406 175.40625 Z M 116.527344 153.710938 C 117.113281 157.003906 117.539062 160.328125 118.097656 163.597656 C 118.332031 165 118.644531 166.375 118.859375 167.773438 C 119.070312 169.175781 118.964844 170.816406 119.886719 171.929688 C 120.042969 172.128906 120.234375 172.292969 120.457031 172.417969 C 120.679688 172.546875 120.914062 172.628906 121.167969 172.664062 C 121.421875 172.699219 121.671875 172.6875 121.921875 172.625 C 122.167969 172.5625 122.398438 172.457031 122.605469 172.308594 C 123.707031 171.585938 124.890625 171.273438 126.078125 170.636719 C 128.582031 169.320312 130.730469 167.570312 132.519531 165.378906 C 135.710938 161.355469 136.832031 155.703125 134.140625 151.113281 C 131.628906 146.824219 126.625 144.269531 121.84375 143.507812 C 120.082031 143.226562 116.511719 142.601562 115.476562 144.585938 C 114.921875 145.644531 115.238281 147.097656 115.414062 148.203125 C 115.703125 150.035156 116.167969 151.859375 116.527344 153.710938 Z M 119.75 147.328125 C 124.316406 147.753906 130.035156 150.125 131.339844 154.996094 C 132.863281 160.578125 127.699219 165.46875 123.039062 167.507812 C 122.085938 162.898438 121.644531 158.191406 120.691406 153.578125 C 120.503906 152.804688 118.910156 147.699219 119.71875 147.328125 Z M 116.832031 147.949219 C 116.695312 147.921875 116.5625 147.886719 116.429688 147.84375 C 116.207031 147.753906 116.6875 147.925781 116.800781 147.949219 Z M 116.222656 147.761719 C 116.390625 147.84375 116.160156 147.761719 116.144531 147.761719 C 116.132812 147.761719 115.992188 147.660156 116.191406 147.761719 Z M 141.476562 168.421875 C 143 168.664062 143.761719 167.273438 143.761719 165.957031 C 143.804688 163.71875 143.050781 161.269531 142.746094 159.050781 C 142.40625 156.53125 142.101562 154.019531 141.78125 151.503906 C 141.476562 149.144531 141.019531 146.800781 140.765625 144.4375 C 140.621094 142.960938 139.96875 140.707031 137.957031 141.394531 C 135.542969 142.246094 136.832031 146.4375 137.113281 148.238281 C 137.996094 153.753906 138.40625 159.332031 139.398438 164.839844 C 139.617188 166.246094 139.746094 168.15625 141.476562 168.421875 Z M 140.136719 144.984375 L 139.976562 145.121094 Z M 163.347656 147.492188 C 163.675781 152.105469 164.757812 156.660156 164.816406 161.292969 C 164.816406 162.816406 164.621094 165.097656 162.914062 165.667969 C 160.886719 166.382812 159.25 164.414062 158.207031 162.976562 C 154.824219 158.296875 151.96875 153.261719 148.9375 148.351562 C 149.121094 151.460938 149.429688 154.5625 149.867188 157.65625 C 150.074219 159.132812 150.386719 160.5625 150.707031 162.015625 C 150.957031 163.128906 151.179688 164.34375 150.46875 165.332031 C 149.183594 167.128906 147.242188 165.902344 146.714844 164.207031 C 146.136719 161.921875 145.761719 159.605469 145.597656 157.253906 C 145.269531 154.53125 144.988281 151.808594 144.835938 149.070312 C 144.695312 146.472656 144.878906 143.859375 144.675781 141.269531 C 144.507812 139.179688 146.675781 137.550781 148.367188 139.324219 C 148.949219 140.109375 149.433594 140.949219 149.816406 141.847656 C 150.4375 142.9375 151.125 143.996094 151.78125 145.058594 C 154.660156 149.71875 157.574219 154.363281 160.523438 158.988281 C 160.15625 154.347656 159.363281 149.769531 159.042969 145.128906 C 158.914062 143.21875 158.238281 140.769531 158.710938 138.898438 C 159.066406 137.484375 160.550781 136.617188 161.847656 137.582031 C 162.929688 138.378906 162.882812 139.960938 162.960938 141.171875 C 163.105469 143.316406 163.210938 145.386719 163.363281 147.492188 Z M 188.8125 162.070312 C 188.816406 162.246094 188.792969 162.421875 188.753906 162.59375 C 188.710938 162.765625 188.648438 162.929688 188.5625 163.085938 C 188.480469 163.242188 188.378906 163.386719 188.261719 163.515625 C 188.140625 163.648438 188.007812 163.761719 187.859375 163.859375 C 187.710938 163.957031 187.554688 164.035156 187.386719 164.09375 C 187.21875 164.152344 187.046875 164.191406 186.871094 164.207031 C 186.695312 164.222656 186.519531 164.214844 186.34375 164.1875 C 186.167969 164.160156 186 164.109375 185.835938 164.039062 C 184.144531 163.277344 184.488281 160.882812 184.273438 159.382812 C 180.597656 162.953125 174.679688 162.296875 171.117188 158.921875 C 167.308594 155.304688 166.546875 149.59375 167.421875 144.648438 C 168.222656 140.242188 170.46875 136.058594 174.214844 133.527344 C 175.273438 132.765625 176.4375 132.226562 177.703125 131.910156 C 178.96875 131.597656 180.25 131.53125 181.542969 131.707031 C 183.375 132.011719 186.796875 133.34375 185.074219 135.785156 C 184.273438 136.925781 183.085938 136.667969 181.976562 136.242188 C 180.90625 135.742188 179.804688 135.652344 178.671875 135.976562 C 177.519531 136.382812 176.476562 136.980469 175.542969 137.765625 C 174.609375 138.554688 173.84375 139.476562 173.246094 140.539062 C 170.878906 144.503906 170.203125 150.238281 172.707031 154.300781 C 173.253906 155.277344 174 156.066406 174.945312 156.667969 C 175.890625 157.269531 176.921875 157.613281 178.039062 157.695312 C 179.820312 157.742188 181.992188 156.644531 182.386719 154.765625 C 182.835938 152.613281 180.863281 151.222656 179.140625 150.46875 C 177.75 149.84375 174.914062 149 175.707031 146.871094 C 176.5 144.738281 180.078125 144.640625 181.800781 143.828125 C 183.804688 142.90625 185.675781 142.839844 186.460938 145.21875 C 187.289062 147.753906 187.078125 150.710938 187.496094 153.335938 C 187.945312 156.25 188.539062 159.140625 188.828125 162.070312 Z M 82.003906 187.898438 C 80.164062 187.136719 77.953125 186.589844 75.988281 187.226562 C 73.78125 187.941406 73.082031 189.914062 73.203125 192.066406 C 73.363281 194.765625 74.132812 197.445312 74.4375 200.128906 C 74.742188 202.816406 74.96875 205.507812 75.304688 208.183594 C 75.578125 210.429688 75.929688 212.671875 76.414062 214.886719 C 76.742188 216.347656 77.3125 218.273438 79.066406 218.484375 C 81.015625 218.722656 81.351562 216.613281 81.007812 215.160156 C 80.351562 212.117188 79.628906 209.175781 79.234375 206.078125 C 84.152344 205.863281 89.546875 202.230469 89.40625 196.867188 C 89.253906 192.660156 85.636719 189.433594 82.003906 187.898438 Z M 80.382812 201.757812 C 79.972656 201.847656 79.273438 202.085938 78.90625 201.808594 C 78.417969 201.453125 78.519531 200.488281 78.496094 199.96875 C 78.394531 198.195312 78.160156 196.4375 77.792969 194.699219 C 77.625 193.832031 76.949219 192.414062 77.328125 191.578125 C 77.855469 190.390625 79.539062 191.296875 80.332031 191.691406 C 82.453125 192.734375 85.25 194.394531 85.257812 197.085938 C 85.242188 199.648438 82.613281 201.253906 80.382812 201.757812 Z M 110.664062 198.925781 C 109.421875 195.351562 108.378906 191.53125 106.605469 188.171875 C 105.285156 185.707031 102.691406 183.554688 100.28125 186.132812 C 98.316406 188.238281 97.777344 191.359375 97.039062 194.042969 C 95.964844 197.921875 94.984375 201.816406 94.214844 205.773438 C 93.871094 207.570312 93.519531 209.363281 93.238281 211.167969 C 93.070312 212.234375 92.8125 213.640625 93.710938 214.460938 C 93.828125 214.5625 93.953125 214.652344 94.089844 214.726562 C 94.226562 214.796875 94.371094 214.855469 94.519531 214.894531 C 94.667969 214.9375 94.820312 214.957031 94.976562 214.964844 C 95.132812 214.96875 95.285156 214.957031 95.4375 214.925781 C 95.589844 214.894531 95.738281 214.847656 95.878906 214.785156 C 96.019531 214.722656 96.152344 214.640625 96.273438 214.546875 C 96.398438 214.453125 96.507812 214.347656 96.605469 214.226562 C 96.703125 214.105469 96.789062 213.976562 96.855469 213.835938 C 97.617188 212.414062 97.617188 210.382812 97.890625 208.800781 C 98.089844 207.601562 98.195312 206.375 98.425781 205.171875 C 98.683594 203.765625 98.980469 203.269531 100.40625 203.300781 C 102.363281 203.257812 104.308594 203.085938 106.246094 202.785156 C 107.007812 202.691406 107.289062 202.570312 107.769531 203.105469 C 108.25 203.636719 108.589844 205.035156 108.917969 205.8125 C 109.574219 207.417969 110.398438 209.617188 111.898438 210.664062 C 112.222656 210.882812 112.585938 210.996094 112.976562 211 C 113.371094 211.007812 113.734375 210.90625 114.070312 210.699219 C 114.402344 210.492188 114.65625 210.210938 114.824219 209.855469 C 114.992188 209.503906 115.054688 209.128906 115.003906 208.742188 C 114.835938 207.332031 113.480469 205.949219 112.894531 204.679688 C 112.054688 202.796875 111.308594 200.882812 110.664062 198.925781 Z M 106.09375 198.636719 C 105.058594 198.804688 104.007812 198.84375 102.964844 198.949219 C 101.972656 199.167969 100.972656 199.238281 99.964844 199.164062 C 100.726562 196.023438 101.679688 192.9375 102.820312 189.914062 C 103.761719 191.699219 104.410156 193.609375 105.234375 195.457031 C 105.460938 196.007812 106.71875 198.089844 106.101562 198.636719 Z M 135.757812 201.726562 C 135.929688 206.292969 131.613281 208.054688 127.667969 207.773438 C 125.484375 207.613281 122.230469 207.226562 120.5625 205.644531 C 120.378906 205.480469 120.226562 205.289062 120.109375 205.070312 C 119.992188 204.851562 119.914062 204.621094 119.875 204.378906 C 119.835938 204.132812 119.839844 203.890625 119.882812 203.644531 C 119.929688 203.402344 120.011719 203.171875 120.136719 202.960938 C 120.808594 201.839844 121.972656 201.894531 123.0625 202.304688 C 124.585938 202.875 133.191406 205.675781 131.4375 200.941406 C 130.890625 199.421875 128.980469 198.730469 127.628906 198.152344 C 125.691406 197.339844 123.808594 196.414062 121.980469 195.375 C 118.394531 193.296875 114.5 189.152344 116.992188 184.792969 C 118.972656 181.339844 123.488281 179.878906 127.257812 180.570312 C 128.980469 180.882812 131.589844 181.652344 132.207031 183.515625 C 132.671875 184.914062 131.78125 186.503906 130.203125 186.328125 C 129.125 186.214844 128.339844 185.332031 127.378906 184.921875 C 126.390625 184.539062 125.375 184.445312 124.332031 184.640625 C 122.808594 184.898438 120.691406 185.757812 120.351562 187.464844 C 119.71875 190.652344 124.730469 192.226562 126.882812 193.175781 C 130.996094 194.964844 135.566406 196.644531 135.765625 201.726562 Z M 160.699219 196.089844 C 160.871094 200.546875 156.890625 202.785156 153.082031 203.53125 C 149.890625 204.144531 144.886719 204.464844 142.101562 202.464844 C 140.613281 201.398438 140.484375 198.78125 142.6875 198.449219 C 143.882812 198.265625 145.214844 199.269531 146.394531 199.484375 C 147.585938 199.6875 148.789062 199.78125 149.996094 199.773438 C 152.097656 199.773438 155.222656 199.398438 156.355469 197.316406 C 157.644531 194.949219 154.445312 194.226562 152.839844 193.722656 C 148.625 192.414062 142.726562 191.851562 140.210938 187.636719 C 137.699219 183.421875 141.324219 179.203125 145.3125 177.863281 C 147.878906 177.042969 150.492188 176.847656 153.148438 177.269531 C 154.894531 177.527344 157.523438 178.714844 156.042969 180.882812 C 155.898438 181.101562 155.722656 181.292969 155.511719 181.453125 C 155.304688 181.613281 155.074219 181.734375 154.824219 181.816406 C 154.574219 181.898438 154.316406 181.941406 154.054688 181.9375 C 153.792969 181.9375 153.535156 181.890625 153.289062 181.804688 C 152.246094 181.363281 151.160156 181.152344 150.027344 181.164062 C 148.03125 181.261719 145.054688 181.6875 143.820312 183.539062 C 141.398438 187.152344 150.523438 188.765625 152.410156 189.234375 C 155.929688 190.148438 160.539062 191.761719 160.699219 196.089844 Z M 93.847656 171.25 C 93.285156 169.074219 92.554688 166.945312 91.835938 164.816406 C 90.644531 161.171875 89.261719 157.605469 87.679688 154.113281 C 86.613281 151.828125 84.875 148.460938 81.90625 148.460938 C 79.203125 148.460938 77.910156 151.722656 77.277344 153.867188 C 76.148438 157.671875 75.9375 161.667969 75.546875 165.585938 C 75.394531 167.585938 75.121094 169.570312 74.726562 171.539062 C 74.375 173.0625 73.203125 175.34375 74.183594 176.867188 C 74.28125 177.003906 74.398438 177.125 74.523438 177.234375 C 74.652344 177.34375 74.792969 177.4375 74.945312 177.511719 C 75.09375 177.585938 75.253906 177.640625 75.417969 177.679688 C 75.582031 177.714844 75.75 177.734375 75.917969 177.730469 C 76.085938 177.726562 76.253906 177.703125 76.414062 177.65625 C 76.578125 177.613281 76.734375 177.550781 76.882812 177.46875 C 77.027344 177.386719 77.164062 177.289062 77.289062 177.171875 C 77.410156 177.058594 77.519531 176.929688 77.613281 176.789062 C 78.433594 175.671875 78.496094 173.953125 78.585938 172.621094 C 78.65625 171.65625 78.585938 169.730469 79.5 169.074219 C 79.996094 168.726562 81.183594 168.75 81.785156 168.632812 C 82.84375 168.4375 83.878906 168.164062 84.921875 167.875 C 86.316406 167.507812 87.890625 165.972656 88.660156 167.875 C 88.988281 168.867188 89.222656 169.882812 89.363281 170.917969 C 89.71875 172.71875 90.472656 176.570312 93.171875 175.328125 C 94.769531 174.574219 94.207031 172.613281 93.855469 171.25 Z M 75.234375 173.664062 L 75.449219 173.609375 C 75.707031 173.558594 75.335938 173.640625 75.242188 173.664062 Z M 86.582031 162.84375 C 84.832031 163.4375 83.101562 164.054688 81.3125 164.527344 C 79.683594 164.953125 79.613281 164.289062 79.894531 162.824219 C 80.511719 159.527344 80.46875 155.976562 82.058594 152.933594 C 83.582031 154.691406 84.273438 156.917969 85.234375 159.019531 C 85.628906 159.855469 87.222656 161.917969 86.589844 162.84375 Z M 203.503906 112.210938 C 203.167969 109.800781 206.871094 108.765625 207.207031 111.191406 L 209.179688 125.441406 C 209.511719 127.859375 205.820312 128.894531 205.476562 126.460938 Z M 208.273438 139.253906 C 208.011719 136.796875 211.851562 136.828125 212.078125 139.253906 L 214.066406 158.273438 C 214.328125 160.722656 210.488281 160.699219 210.257812 158.273438 L 208.265625 139.253906 Z M 212.976562 174.4375 C 212.671875 171.988281 216.511719 172.019531 216.785156 174.4375 L 218.957031 191.511719 C 219.269531 193.960938 215.429688 193.929688 215.148438 191.511719 Z M 217.8125 209.601562 C 217.539062 207.152344 221.386719 207.171875 221.621094 209.601562 L 223.832031 229.53125 C 224.097656 231.980469 220.257812 231.949219 220.023438 229.53125 Z M 221.621094 244.359375 C 221.179688 241.9375 224.882812 240.914062 225.324219 243.339844 L 228.4375 260.402344 C 228.878906 262.8125 225.179688 263.839844 224.738281 261.421875 Z M 241.085938 191.519531 C 240.84375 189.058594 244.683594 189.082031 244.894531 191.519531 C 246.667969 209.492188 248.90625 227.417969 251.613281 245.292969 C 251.976562 247.707031 248.277344 248.742188 247.910156 246.3125 C 245.152344 228.113281 242.871094 209.855469 241.058594 191.539062 Z M 253.433594 190.171875 C 253.1875 187.714844 257.027344 187.738281 257.238281 190.171875 C 259.007812 208.15625 261.242188 226.082031 263.949219 243.949219 C 264.316406 246.367188 260.621094 247.394531 260.25 244.96875 C 257.492188 226.761719 255.207031 208.503906 253.394531 190.195312 Z M 265.792969 188.824219 C 265.546875 186.367188 269.386719 186.398438 269.601562 188.824219 C 271.378906 206.808594 273.613281 224.734375 276.308594 242.601562 C 276.675781 245.019531 272.980469 246.054688 272.617188 243.621094 C 269.859375 225.414062 267.574219 207.15625 265.761719 188.847656 Z M 278.136719 184.078125 C 277.894531 181.621094 281.730469 181.644531 281.945312 184.078125 C 283.710938 202.042969 285.941406 219.964844 288.640625 237.855469 C 289.003906 240.265625 285.304688 241.300781 284.9375 238.875 C 282.179688 220.667969 279.894531 202.410156 278.082031 184.101562 Z M 290.480469 182.730469 C 290.246094 180.273438 294.085938 180.296875 294.289062 182.730469 C 296.0625 200.714844 298.296875 218.640625 301 236.507812 C 301.363281 238.925781 297.671875 239.960938 297.296875 237.527344 C 294.546875 219.320312 292.261719 201.0625 290.445312 182.753906 Z M 302.835938 179.6875 C 302.589844 177.230469 306.429688 177.253906 306.640625 179.6875 C 308.417969 197.660156 310.660156 215.585938 313.359375 233.464844 C 313.726562 235.875 310.023438 236.910156 309.65625 234.484375 C 306.902344 216.277344 304.617188 198.019531 302.804688 179.710938 Z M 315.179688 176.644531 C 314.9375 174.1875 318.773438 174.210938 318.988281 176.644531 C 320.753906 194.628906 322.992188 212.554688 325.695312 230.421875 C 326.0625 232.839844 322.367188 233.867188 321.996094 231.441406 C 319.238281 213.234375 316.953125 194.976562 315.140625 176.667969 Z M 327.875 172.742188 C 327.632812 170.285156 331.46875 170.316406 331.683594 172.742188 C 333.460938 190.726562 335.699219 208.652344 338.398438 226.519531 C 338.765625 228.9375 335.0625 229.972656 334.699219 227.539062 C 331.941406 209.335938 329.65625 191.078125 327.84375 172.765625 Z M 51.070312 248.601562 C 48.65625 249.152344 47.644531 245.453125 50.050781 244.90625 C 96.046875 234.488281 142.324219 225.476562 188.875 217.871094 C 191.296875 217.472656 192.324219 221.171875 189.894531 221.566406 C 143.355469 229.175781 97.070312 238.183594 51.046875 248.597656 Z M 54.527344 264.472656 C 52.128906 265.082031 51.117188 261.382812 53.507812 260.773438 C 101.054688 248.730469 148.96875 238.390625 197.253906 229.761719 C 199.675781 229.328125 200.703125 233.023438 198.273438 233.457031 C 150 242.078125 102.074219 252.417969 54.5 264.472656 Z M 59.90625 278.28125 C 57.507812 278.886719 56.492188 275.191406 58.882812 274.589844 C 101.394531 263.785156 144.421875 255.726562 187.960938 250.414062 C 190.414062 250.109375 190.382812 253.945312 187.960938 254.21875 C 144.765625 259.511719 102.078125 267.523438 59.90625 278.257812 Z M 59.90625 278.28125 " fill-opacity="1" fill-rule="evenodd"/></svg>